<?xml version="1.0" encoding="utf-8"?><!-- Uploaded to: SVG Repo, www.svgrepo.com, Generator: SVG Repo Mixer Tools -->
<svg width="800px" height="800px" viewBox="0 0 24 24" fill="none" xmlns="http://www.w3.org/2000/svg">
<path fill-rule="evenodd" clip-rule="evenodd" d="M3.36828 4.36828C2.39197 5.34459 2.39197 6.9275 3.36828 7.90381L6.55026 11.0858L4.42894 13.2071C4.03842 13.5976 4.03842 14.2308 4.42894 14.6213C4.81946 15.0119 5.45263 15.0119 5.84315 14.6213L7.25737 13.2071L13.2678 19.2175C13.7296 19.6793 14.4176 19.7771 14.9752 19.5107L16.0962 20.6317C17.0725 21.608 18.6554 21.608 19.6317 20.6317C20.608 19.6554 20.608 18.0725 19.6317 17.0962L18.5107 15.9752C18.7771 15.4176 18.6793 14.7296 18.2175 14.2678L12.2071 8.25737L13.6213 6.84315C14.0119 6.45263 14.0119 5.81946 13.6213 5.42894C13.2308 5.03842 12.5976 5.03842 12.2071 5.42894L10.0858 7.55026L6.90381 4.36828C5.9275 3.39197 4.34459 3.39197 3.36828 4.36828ZM10.7929 9.67158L8.67158 11.7929L14.3888 17.5101C14.9464 17.2438 15.6344 17.3415 16.0962 17.8033L17.5104 19.2175C17.7057 19.4128 18.0223 19.4128 18.2175 19.2175C18.4128 19.0223 18.4128 18.7057 18.2175 18.5104L16.8033 17.0962C16.3415 16.6344 16.2438 15.9464 16.5101 15.3888L10.7929 9.67158Z" fill="#000000"/>
</svg>