<svg fill = "#ffffff" xmlns="http://www.w3.org/2000/svg" height="48" viewBox="0 -960 960 960" width="48"><path d="M259.859-204q-19.379 0-32.619-13.369Q214-230.737 214-250.099q0-19.361 13.369-33.131Q240.737-297 260.099-297q19.361 0 33.131 13.671t13.77 33.47q0 19.379-13.671 32.619Q279.658-204 259.859-204Zm120 153q-19.379 0-32.619-13.369Q334-77.737 334-97.099q0-19.361 13.369-33.131Q360.737-144 380.099-144q19.361 0 33.131 13.671T427-96.859q0 19.379-13.671 32.619Q399.658-51 379.859-51Zm120-153q-19.379 0-32.619-13.369Q454-230.737 454-250.099q0-19.361 13.369-33.131Q480.737-297 500.099-297q19.361 0 33.131 13.671t13.77 33.47q0 19.379-13.671 32.619Q519.658-204 499.859-204Zm240 0q-19.379 0-32.619-13.369Q694-230.737 694-250.099q0-19.361 13.369-33.131Q720.737-297 740.099-297q19.361 0 33.131 13.671t13.77 33.47q0 19.379-13.671 32.619Q759.658-204 739.859-204Zm-120 153q-19.379 0-32.619-13.369Q574-77.737 574-97.099q0-19.361 13.369-33.131Q600.737-144 620.099-144q19.361 0 33.131 13.671T667-96.859q0 19.379-13.671 32.619Q639.658-51 619.859-51ZM290-379q-88.864 0-152.432-63.52Q74-506.04 74-594.835 74-676 131-739q57-63 142-71 33-57 86.5-89.5T480.423-932q90.366 0 153.472 58Q697-816 714-731q79 6 126 56.358 47 50.359 47 118.806 0 74.253-51.625 125.544Q783.75-379 710-379H290Z"/></svg>
